# AST/ASF file generated using VICON BodyLanguage
# -----------------------------------------------
:version 1.10
:name VICON
:units
  mass 1.0
  length 0.45
  angle deg
:documentation
   .ast/.asf automatically generated from VICON data using
   VICON BodyBuilder and BodyLanguage model FoxedUp or BRILLIANT.MOD
:root
   order TX TY TZ RX RY RZ
   axis XYZ
   position 0 0 0  
   orientation 0 0 0 
:bonedata
  begin
     id 1 
     name lhipjoint
     direction 0.693937 -0.600361 0.397515 
     length 2.37164 
     axis 0 0 0  XYZ
  end
  begin
     id 2 
     name lfemur
     direction 0.34202 -0.939693 0  
     length 6.18497  
     axis 0 0 20  XYZ
    dof rx ry rz
    limits (-160.0 20.0)
           (-70.0 70.0)
           (-60.0 70.0)
  end
  begin
     id 3 
     name ltibia
     direction 0.34202 -0.939693 0   
     length 6.91601   
     axis 0 0 20   XYZ
    dof rx
    limits (-10.0 170.0)
  end
  begin
     id 4 
     name lfoot
     direction 0.0978718 -0.2689 0.958182   
     length 1.81453   
     axis -90 7.62852e-016 20   XYZ
    dof rx rz
    limits (-45.0 90.0)
           (-70.0 20.0)
  end
  begin
     id 5 
     name ltoes
     direction 1.53569e-011 -4.21951e-011 1   
     length 0.912052   
     axis -90 7.62852e-016 20   XYZ
    dof rx
    limits (-90.0 20.0)
  end
  begin
     id 6 
     name rhipjoint
     direction -0.643996 -0.637876 0.422354   
     length 2.23216  
     axis 0 0 0  XYZ 
  end
  begin
     id 7 
     name rfemur
     direction -0.34202 -0.939693 0   
     length 6.15404   
     axis 0 0 -20   XYZ
    dof rx ry rz
    limits (-160.0 20.0)
           (-70.0 70.0)
           (-70.0 60.0)
  end
  begin
     id 8 
     name rtibia
     direction -0.34202 -0.939693 0   
     length 6.86744   
     axis 0 0 -20   XYZ
    dof rx
    limits (-10.0 170.0)
 end
 begin
     id 9 
     name rfoot
     direction -0.118701 -0.326127 0.937844   
     length 1.9243  
     axis -90 -7.62852e-016 -20   XYZ
    dof rx rz
    limits (-45.0 90.0)
           (-20.0 70.0)
  end
  begin
     id 10 
     name rtoes
     direction -1.5356e-011 -4.2181e-011 1   
     length 0.958865   
     axis -90 -7.62852e-016 -20   XYZ
    dof rx
    limits (-90.0 20.0)
  end
  begin
     id 11 
     name lowerback
     direction 0.0310826 0.968686 -0.246334   
     length 2.00021   
     axis 0 0 0   XYZ
    dof rx ry rz
    limits (-20.0 45.0)
           (-30.0 30.0)
           (-30.0 30.0)
  end
  begin
     id 12 
     name upperback
     direction -0.0152834 0.999474 -0.0286152   
     length 2.03728   
     axis 0 0 0   XYZ
    dof rx ry rz
    limits (-20.0 45.0)
           (-30.0 30.0)
           (-30.0 30.0)
  end
  begin
     id 13 
     name thorax
     direction -0.0323701 0.996236 0.0804149   
     length 2.16   
     axis 0 0 0   XYZ
    dof rx ry rz
    limits (-20.0 45.0)
           (-30.0 30.0)
           (-30.0 30.0)
  end
  begin
     id 14 
     name lowerneck
     direction 0.0307935 0.982251 0.185027   
     length 1.43558   
     axis 0 0 0   XYZ
    dof rx ry rz
    limits (-20.0 45.0)
           (-30.0 30.0)
           (-30.0 30.0)
  end
  begin
     id 15 
     name upperneck
     direction -0.0927153 0.994775 0.0427454   
     length 1.44603   
     axis 0 0 0   XYZ
    dof rx ry rz
    limits (-20.0 45.0)
           (-30.0 30.0)
           (-30.0 30.0)
  end
  begin
     id 16
     name head
     direction -0.0341265 0.999406 -0.00472033  
     length 1.45931  
     axis 0 0 0   XYZ
    dof rx ry rz
    limits (-20.0 45.0)
           (-30.0 30.0)
           (-30.0 30.0)
  end
  begin
     id 17 
     name lclavicle
     direction 0.820755 0.555306 -0.134151  
     length 2.66075  
     axis 0 0 0   XYZ
    dof ry rz
    limits (-20.0 10.0)
           (0.0 20.0)
  end
  begin
     id 18 
     name lhumerus
     direction 1 -4.48971e-011 5.24853e-027   
     length 5.0546   
     axis -180 -30 -90   XYZ
    dof rx ry rz
    limits (-60.0 90.0)
           (-90.0 90.0)
           (-90.0 90.0)
  end
  begin
     id 19
     name lradius
     direction 1 -4.48971e-011 2.76575e-028   
     length 3.39013   
     axis -180 -30 -90   XYZ
    dof rx
    limits (-10.0 170.0)
  end
  begin
     id 20
     name lwrist
     direction 1 -4.48939e-011 -2.27826e-027   
     length 1.69507   
     axis 2.17013e-015 90 90   XYZ
    dof ry
    limits (-180.0 0.0)
 end
  begin
     id 21 
     name lhand
     direction 1 -4.49009e-011 -4.55652e-027   
     length 0.572425   
     axis 2.90745e-015 90 90   XYZ
    dof rx rz
    limits (-90.0 90.0)
           (-45.0 45.0)
  end
  begin
     id 22 
     name lfingers
     direction 1 -4.48955e-011 -9.11303e-027   
     length 0.461504   
     axis 5.81489e-015 90 90   XYZ
    dof rx
    limits (0.0 90.0)
  end
  begin
     id 23
     name lthumb
     direction 0.707107 -6.34929e-011 0.707107   
     length 0.66263   
     axis -90 45 2.85299e-015   XYZ
    dof rx rz
    limits (-45.0 45.0)
           (-45.0 45.0)
  end
  begin
     id 24 
     name rclavicle
     direction -0.754477 0.632921 -0.173712   
     length 2.73081  
     axis 0 0 0   XYZ 
    dof ry rz
    limits (-10.0 20.0)
           (-20.0 0.0)
  end
  begin
     id 25 
     name rhumerus
     direction -1 -4.48969e-011 5.1496e-027  
     length 5.0701   
     axis -180 30 90   XYZ
    dof rx ry rz
    limits (-90.0 60.0)
           (-90.0 90.0)
           (-90.0 90.0)
  end
  begin
     id 26 
     name rradius
     direction -1 -4.48967e-011 -7.15624e-028   
     length 3.14957   
     axis -180 30 90   XYZ
    dof rx
    limits (-10.0 170.0)
  end
  begin
     id 27 
     name rwrist
     direction -1 -4.48938e-011 -2.27826e-027   
     length 1.57479   
     axis 2.17013e-015 -90 -90   XYZ
    dof ry
    limits (-180.0 0.0)
  end
  begin
     id 28
     name rhand
     direction -1 -4.49008e-011 -4.55652e-027   
     length 0.718191   
     axis 2.90745e-015 -90 -90   XYZ
    dof rx rz
    limits (-90.0 90.0)
           (-45.0 45.0)
  end
  begin
     id 29
     name rfingers
     direction -1 -4.48953e-011 -9.11303e-027   
     length 0.579024   
     axis 5.81489e-015 -90 -90   XYZ
    dof rx
    limits (0.0 90.0)
  end
  begin
     id 30
     name rthumb
     direction -0.707107 -6.34937e-011 0.707107   
     length 0.831366   
     axis -90 -45 -2.85299e-015   XYZ
    dof rx rz
    limits (-45.0 45.0)
           (-45.0 45.0)
  end
:hierarchy
  begin
    root lhipjoint rhipjoint lowerback
    lhipjoint lfemur
    lfemur ltibia
    ltibia lfoot
    lfoot ltoes
    rhipjoint rfemur
    rfemur rtibia
    rtibia rfoot
    rfoot rtoes
    lowerback upperback
    upperback thorax
    thorax lowerneck lclavicle rclavicle
    lowerneck upperneck
    upperneck head
    lclavicle lhumerus
    lhumerus lradius
    lradius lwrist
    lwrist lhand lthumb
    lhand lfingers
    rclavicle rhumerus
    rhumerus rradius
    rradius rwrist
    rwrist rhand rthumb
    rhand rfingers
  end

#!OML:ASF H:\Male1\Project 1\Capture day 1\Session 1\Male1.ASF
:FULLY-SPECIFIED
:DEGREES
135
root 13.4615 15.3124 1.42405 -164.225 -81.4262 157.2
lowerback 13.0849 0.720515 -6.64189
upperback 3.94459 -0.260812 -2.64081
thorax -3.16896 -0.223473 1.02357
lowerneck -22.4749 11.7792 -5.14354
upperneck 8.37201 -58.3295 -4.17307
head 35.1948 -34.82 -179.007
rclavicle -3.74709e-014 -1.66979e-014
rhumerus -55.1793 8.21356 -55.3641
rradius 85.2978
rwrist -17.7495
rhand 8.0168 4.78409
rfingers 7.12502
rthumb 33.243 -22.1645
lclavicle -3.74709e-014 -1.66979e-014
lhumerus -51.8421 -26.9459 79.2697
lradius 72.4802
lwrist 1.62471
lhand 6.34725 9.43547
lfingers 7.12502
lthumb 31.6541 36.7102
rfemur -34.8316 -10.1835 14.1672
rtibia 76.2061
rfoot -14.2394 -15.2583
rtoes -26.597
lfemur 0.293027 -11.039 -31.2873
ltibia 24.6478
lfoot -22.6526 23.3402
ltoes 3.48057
136
root 13.4705 15.3538 1.48034 -168.916 -81.0795 161.62
lowerback 13.5797 0.698414 -6.07628
upperback 4.09126 -0.251676 -2.49013
thorax -3.28773 -0.22239 0.863842
lowerneck -22.4177 12.106 -5.69012
upperneck 8.28408 -58.349 -3.99356
head 35.3034 -33.5634 -179.151
rclavicle 6.4605e-015 5.56597e-015
rhumerus -55.7231 8.6222 -55.7348
rradius 87.1939
rwrist -17.9916
rhand 7.44832 5.28841
rfingers 7.12502
rthumb 32.7023 -21.7741
lclavicle 6.4605e-015 5.56597e-015
lhumerus -52.1684 -26.4357 80.8045
lradius 72.1349
lwrist 1.45017
lhand 4.47946 9.89374
lfingers 7.12502
lthumb 29.8733 37.5039
rfemur -37.6578 -11.9283 15.2885
rtibia 79.6853
rfoot -14.7019 -15.6585
rtoes -25.4252
lfemur 1.47303 -11.3716 -31.1155
ltibia 22.978
lfoot -22.0163 24.3353
ltoes 4.58376
137
root 13.4785 15.4019 1.53571 -175.606 -80.649 168.214
lowerback 13.9801 0.635348 -5.15459
upperback 4.14202 -0.221089 -2.19298
thorax -3.45776 -0.204252 0.653619
lowerneck -22.3061 12.4714 -6.21429
upperneck 8.25649 -58.3167 -3.89408
head 35.4383 -32.5144 -179.32
rclavicle 1.3418e-014 5.56597e-015
rhumerus -56.1355 9.11721 -55.9236
rradius 88.9348
rwrist -18.2937
rhand 6.98863 5.54248
rfingers 7.12502
rthumb 32.2649 -21.61
lclavicle 1.3418e-014 5.56597e-015
lhumerus -52.4209 -25.8439 82.2244
lradius 71.6361
lwrist 0.758088
lhand 3.08012 10.3629
lfingers 7.12502
lthumb 28.5371 38.2053
rfemur -40.662 -13.5536 17.1154
rtibia 82.903
rfoot -14.7989 -15.9432
rtoes -24.2901
lfemur 2.52636 -11.9234 -30.5414
ltibia 21.3422
lfoot -21.6215 25.4436
ltoes 6.54335
138
root 13.4844 15.4389 1.59158 -174.131 -80.1237 166.863
lowerback 14.0194 0.597732 -5.451
upperback 4.14689 -0.319936 -2.21526
thorax -3.46701 -0.254345 0.813148
lowerneck -22.2388 12.8628 -6.69545
upperneck 8.1681 -58.0569 -3.78132
head 35.5128 -31.5353 -179.466
rclavicle -2.28602e-014 -3.49861e-014
rhumerus -56.2015 9.63466 -55.9222
rradius 90.4557
rwrist -18.5366
rhand 6.73185 5.55746
rfingers 7.12502
rthumb 32.0204 -21.6444
lclavicle -2.28602e-014 -3.49861e-014
lhumerus -52.5317 -25.0426 83.3735
lradius 71.121
lwrist -0.181919
lhand 2.23723 10.7947
lfingers 7.12502
lthumb 27.7314 38.7696
rfemur -44.4205 -15.6839 17.8422
rtibia 86.1198
rfoot -14.3941 -15.7575
rtoes -23.522
lfemur 3.22961 -12.5379 -31.2831
ltibia 19.692
lfoot -21.149 26.6076
ltoes 8.85825
139
root 13.4987 15.476 1.64157 -174.948 -79.8713 167.647
lowerback 14.4333 0.492702 -5.36123
upperback 4.17616 -0.479984 -2.17814
thorax -3.65244 -0.33258 0.829838
lowerneck -22.2256 13.1649 -6.99418
upperneck 8.10652 -57.9512 -3.67809
head 35.5895 -30.8556 -179.571
rclavicle -3.39922e-014 1.11319e-014
rhumerus -56.1829 9.97477 -55.8323
rradius 91.8341
rwrist -18.7824
rhand 6.54578 5.88663
rfingers 7.12502
rthumb 31.8432 -21.3506
lclavicle -3.39922e-014 1.11319e-014
lhumerus -52.586 -24.2761 84.2103
lradius 70.7107
lwrist -0.996241
lhand 1.42687 11.0484
lfingers 7.12502
lthumb 26.9563 39.1455
rfemur -47.9211 -18.069 19.3553
rtibia 88.808
rfoot -13.8524 -15.3261
rtoes -22.9568
lfemur 4.13753 -13.2049 -31.5897
ltibia 17.9771
lfoot -20.5904 27.6612
ltoes 11.1739
